<svg width="738" height="841" viewBox="0 0 738 841" fill="none" xmlns="http://www.w3.org/2000/svg">
<path d="M174.346 513.053L32.4363 432.116C27.2409 429.116 27.9104 423.893 33.8825 420.411L115.536 373.273C121.535 369.818 130.586 369.444 135.782 372.443L277.691 453.381C282.886 456.381 282.217 461.604 276.245 465.085L194.592 512.223C188.593 515.678 179.541 516.053 174.346 513.053Z" fill="#B2D3EA"/>
<path d="M290.358 426.143V94.8115L158.652 60.3419L134.389 46.3344C128.819 43.1205 119.098 43.5222 112.67 47.2451L90.0408 60.3151H19.7959L40.6043 380.13C40.4436 382.299 41.6487 384.415 44.3267 385.942L175.765 485.119C181.335 488.333 191.056 487.931 197.484 484.208L285.082 433.642C288.778 431.5 290.572 428.741 290.385 426.143H290.358Z" fill="#396CAA"/>
<path d="M124.321 44.1652C120.25 44.2723 116.019 45.29 112.671 47.2184L90.0418 60.2885H19.7969V392.477C19.6362 394.646 20.8413 396.762 23.5193 398.289L175.766 485.092C178.444 486.646 182.086 487.342 185.835 487.235L187.415 152.931L124.321 44.1384V44.1652Z" fill="#D4ECFF"/>
<path d="M177.156 485.788C181.95 487.851 188.913 487.744 194.51 485.601V149.02H177.156V485.788Z" fill="#5793CE"/>
<path d="M175.765 153.011L23.5183 66.1806C17.948 62.9666 18.6443 57.3422 25.0716 53.6462L112.67 3.08003C119.097 -0.642796 128.819 -1.04454 134.389 2.16941L286.636 88.9728C292.206 92.1868 291.51 97.8112 285.082 101.507L197.484 152.073C191.056 155.796 181.335 156.198 175.765 152.984V153.011Z" fill="#D4ECFF"/>
<path d="M285.082 95.374L197.484 145.94C191.056 149.663 181.335 150.065 175.765 146.851L23.5184 60.0205C22.2865 59.2974 21.3759 58.4671 20.7332 57.5565C18.8318 60.6365 19.6888 63.9844 23.5184 66.1806L175.765 152.984C181.335 156.198 191.056 155.796 197.484 152.073L285.082 101.507C290.09 98.6147 291.59 94.5973 289.421 91.4369C288.537 92.8296 287.091 94.1955 285.082 95.3472V95.374Z" fill="#FAFDFF"/>
<path d="M180.074 117.818L78.7107 59.0566C76.113 57.5567 76.4344 54.932 79.4338 53.1911L120.435 29.515C123.434 27.7741 127.987 27.5867 130.611 29.0865L231.975 87.8482C234.573 89.3481 234.251 91.9728 231.252 93.7137L190.251 117.39C187.252 119.131 182.699 119.318 180.074 117.818V117.818Z" fill="#173D7A"/>
<path d="M125.336 61.7081L119.471 58.3067C119.123 58.0924 119.149 57.7442 119.578 57.5032L125.255 54.2357C125.684 53.9946 126.3 53.9679 126.675 54.1821L132.54 57.5836C132.888 57.7978 132.861 58.146 132.432 58.387L126.755 61.6546C126.327 61.8956 125.711 61.9224 125.336 61.7081Z" fill="#D4ECFF"/>
<path d="M144.966 72.9837L139.101 69.5823C138.753 69.368 138.779 69.0199 139.208 68.7788L144.885 65.5113C145.314 65.2702 145.93 65.2435 146.305 65.4577L152.169 68.8592C152.518 69.0734 152.491 69.4216 152.062 69.6626L146.385 72.9302C145.956 73.1712 145.34 73.198 144.966 72.9837Z" fill="#D4ECFF"/>
<path d="M164.596 84.2593L158.731 80.8579C158.383 80.6436 158.41 80.2955 158.838 80.0544L164.516 76.7869C164.944 76.5458 165.56 76.5191 165.935 76.7333L171.8 80.1348C172.148 80.349 172.121 80.6972 171.693 80.9382L166.015 84.2058C165.587 84.4468 164.971 84.4736 164.596 84.2593Z" fill="#D4ECFF"/>
<path d="M184.2 95.5614L178.336 92.16C177.987 91.9457 178.014 91.5976 178.443 91.3565L184.12 88.089C184.549 87.8479 185.165 87.8212 185.539 88.0354L191.404 91.4369C191.753 91.6511 191.726 91.9993 191.297 92.2403L185.62 95.5079C185.191 95.7489 184.575 95.7757 184.2 95.5614Z" fill="#D4ECFF"/>
<path d="M78.7117 59.0566L78.8189 59.1369C79.0063 59.003 79.1938 58.8423 79.4348 58.7084L120.436 35.0323C123.435 33.2914 127.988 33.1039 130.612 34.6038L231.842 93.2852C234.252 91.5711 234.359 89.2142 231.949 87.8482L130.585 29.1133C127.988 27.6134 123.435 27.8009 120.409 29.5418L79.408 53.2179C76.4086 54.9588 76.0605 57.5835 78.685 59.0834L78.7117 59.0566Z" fill="#5793CE"/>
<path d="M214.595 218.656L272.227 185.659C275.467 183.785 278.092 178.776 278.092 174.437V153.814C278.092 149.502 275.467 147.494 272.227 149.369L214.595 182.365C211.355 184.24 208.73 189.248 208.73 193.587V214.21C208.73 218.522 211.355 220.531 214.595 218.656Z" fill="#173D7A"/>
<path d="M275.066 148.753C275.976 149.61 276.539 151.056 276.539 153.038V173.661C276.539 177.973 273.914 183.008 270.674 184.883L213.042 217.879C211.998 218.468 211.034 218.656 210.177 218.495C211.248 219.513 212.801 219.674 214.569 218.656L272.2 185.659C275.441 183.785 278.065 178.776 278.065 174.437V153.814C278.065 150.868 276.833 149.047 275.039 148.753H275.066Z" fill="white"/>
<path d="M231.922 196.265L237.197 193.212C237.894 192.81 238.483 191.712 238.483 190.775V185.124C238.483 184.186 237.92 183.758 237.197 184.159L231.922 187.213C231.225 187.614 230.636 188.712 230.636 189.65V195.301C230.636 196.238 231.199 196.667 231.922 196.265Z" fill="#396CAA"/>
<path d="M249.596 186.061L254.871 183.008C255.568 182.606 256.157 181.508 256.157 180.57V174.919C256.157 173.982 255.594 173.553 254.871 173.955L249.596 177.008C248.899 177.41 248.31 178.508 248.31 179.446V185.097C248.31 186.034 248.872 186.463 249.596 186.061Z" fill="white"/>
<path d="M214.595 367.569L272.227 334.572C275.467 332.697 278.092 327.689 278.092 323.35V302.727C278.092 298.415 275.467 296.407 272.227 298.281L214.595 331.278C211.355 333.153 208.73 338.161 208.73 342.5V363.123C208.73 367.435 211.355 369.444 214.595 367.569Z" fill="#173D7A"/>
<path d="M275.066 297.692C275.976 298.549 276.539 299.996 276.539 301.977V322.6C276.539 326.912 273.914 331.948 270.674 333.822L213.042 366.819C211.998 367.408 211.034 367.596 210.177 367.435C211.248 368.453 212.801 368.613 214.569 367.596L272.2 334.599C275.441 332.724 278.065 327.716 278.065 323.377V302.754C278.065 299.808 276.833 297.987 275.039 297.692H275.066Z" fill="white"/>
<path d="M231.922 345.178L237.197 342.125C237.894 341.723 238.483 340.625 238.483 339.688V334.036C238.483 333.099 237.92 332.671 237.197 333.072L231.922 336.126C231.225 336.527 230.636 337.625 230.636 338.563V344.214C230.636 345.151 231.199 345.58 231.922 345.178V345.178Z" fill="#396CAA"/>
<path d="M249.596 334.974L254.871 331.921C255.568 331.519 256.157 330.421 256.157 329.483V323.832C256.157 322.895 255.594 322.466 254.871 322.868L249.596 325.921C248.899 326.323 248.31 327.421 248.31 328.358V334.01C248.31 334.947 248.872 335.376 249.596 334.974Z" fill="white"/>
<path d="M214.595 442.052L272.227 409.055C275.467 407.181 278.092 402.172 278.092 397.833V377.211C278.092 372.898 275.467 370.89 272.227 372.765L214.595 405.761C211.355 407.636 208.73 412.644 208.73 416.983V437.606C208.73 441.918 211.355 443.927 214.595 442.052Z" fill="#173D7A"/>
<path d="M275.066 372.149C275.976 373.006 276.539 374.452 276.539 376.434V397.057C276.539 401.369 273.914 406.404 270.674 408.279L213.042 441.275C211.998 441.864 211.034 442.052 210.177 441.891C211.248 442.909 212.801 443.07 214.569 442.052L272.2 409.055C275.441 407.181 278.065 402.172 278.065 397.833V377.211C278.065 374.264 276.833 372.443 275.039 372.149H275.066Z" fill="white"/>
<path d="M231.922 419.662L237.197 416.608C237.894 416.207 238.483 415.109 238.483 414.171V408.52C238.483 407.583 237.92 407.154 237.197 407.556L231.922 410.609C231.225 411.011 230.636 412.109 230.636 413.046V418.697C230.636 419.635 231.199 420.063 231.922 419.662Z" fill="#396CAA"/>
<path d="M249.596 409.457L254.871 406.404C255.568 406.002 256.157 404.904 256.157 403.967V398.316C256.157 397.378 255.594 396.95 254.871 397.351L249.596 400.405C248.899 400.806 248.31 401.905 248.31 402.842V408.493C248.31 409.431 248.872 409.859 249.596 409.457Z" fill="white"/>
<path d="M214.595 293.112L272.227 260.116C275.467 258.241 278.092 253.232 278.092 248.894V228.271C278.092 223.959 275.467 221.95 272.227 223.825L214.595 256.821C211.355 258.696 208.73 263.705 208.73 268.043V288.666C208.73 292.978 211.355 294.987 214.595 293.112V293.112Z" fill="#173D7A"/>
<path d="M275.066 223.236C275.976 224.093 276.539 225.539 276.539 227.521V248.144C276.539 252.456 273.914 257.491 270.674 259.366L213.042 292.362C211.998 292.952 211.034 293.139 210.177 292.978C211.248 293.996 212.801 294.157 214.569 293.139L272.2 260.142C275.441 258.268 278.065 253.259 278.065 248.92V228.298C278.065 225.351 276.833 223.53 275.039 223.236H275.066Z" fill="white"/>
<path d="M231.922 270.722L237.197 267.668C237.894 267.267 238.483 266.168 238.483 265.231V259.58C238.483 258.642 237.92 258.214 237.197 258.616L231.922 261.669C231.225 262.071 230.636 263.169 230.636 264.106V269.757C230.636 270.695 231.199 271.123 231.922 270.722Z" fill="#396CAA"/>
<path d="M249.596 260.517L254.871 257.464C255.568 257.062 256.157 255.964 256.157 255.027V249.376C256.157 248.438 255.594 248.01 254.871 248.411L249.596 251.465C248.899 251.866 248.31 252.964 248.31 253.902V259.553C248.31 260.49 248.872 260.919 249.596 260.517Z" fill="white"/>
<path d="M164.678 197.551L31.7139 120.791C28.7413 119.077 26.3311 114.47 26.3311 110.507V85.1431C26.3311 81.1793 28.7413 79.358 31.7139 81.0721L164.678 157.832C167.651 159.546 170.061 164.153 170.061 168.117V193.48C170.061 197.444 167.651 199.265 164.678 197.551Z" fill="#5793CE"/>
<path opacity="0.4" d="M160.849 188.659L35.5436 116.292C34.0439 115.408 32.812 113.078 32.812 111.069V91.9995C32.812 89.9908 34.0439 89.0534 35.5436 89.9373L160.849 162.305C162.349 163.189 163.581 165.519 163.581 167.527V186.597C163.581 188.606 162.349 189.543 160.849 188.659Z" fill="#D4ECFF"/>
<path d="M61.6535 121.755L42.9608 110.962C41.4879 110.105 40.3096 107.855 40.3096 105.9C40.3096 103.945 41.4879 103.034 42.9608 103.891L61.6535 114.685C63.1265 115.542 64.3048 117.791 64.3048 119.747C64.3048 121.702 63.1265 122.612 61.6535 121.755Z" fill="#D4ECFF"/>
<path d="M77.5898 127.407C77.5898 129.362 76.224 130.165 74.5368 129.174C72.8497 128.21 71.4839 125.827 71.4839 123.871C71.4839 121.916 72.8497 121.113 74.5368 122.104C76.224 123.068 77.5898 125.452 77.5898 127.407Z" fill="#173D7A"/>
<path d="M88.4092 133.647C88.4092 135.602 87.0433 136.405 85.3562 135.414C83.669 134.424 82.3032 132.067 82.3032 130.111C82.3032 128.156 83.669 127.353 85.3562 128.344C87.0433 129.308 88.4092 131.692 88.4092 133.647Z" fill="#173D7A"/>
<path d="M99.2285 139.887C99.2285 141.843 97.8627 142.646 96.1755 141.655C94.4884 140.691 93.1226 138.307 93.1226 136.352C93.1226 134.397 94.4884 133.593 96.1755 134.584C97.8627 135.575 99.2285 137.932 99.2285 139.887Z" fill="#D4ECFF"/>
<path d="M110.019 146.128C110.019 148.083 108.653 148.887 106.966 147.896C105.279 146.932 103.913 144.548 103.913 142.593C103.913 140.638 105.279 139.834 106.966 140.825C108.653 141.816 110.019 144.173 110.019 146.128Z" fill="#173D7A"/>
<path d="M155.572 178.053L149.278 174.411C148.341 173.875 147.564 172.402 147.564 171.143V164.474C147.564 163.215 148.314 162.653 149.278 163.188L155.572 166.831C156.509 167.367 157.286 168.84 157.286 170.098V176.767C157.286 178.026 156.536 178.589 155.572 178.053Z" fill="#173D7A"/>
<path d="M164.678 421.108L31.7139 344.348C28.7413 342.634 26.3311 338.027 26.3311 334.063V308.7C26.3311 304.736 28.7413 302.915 31.7139 304.629L164.678 381.389C167.651 383.103 170.061 387.71 170.061 391.674V417.037C170.061 421.001 167.651 422.822 164.678 421.108V421.108Z" fill="#5793CE"/>
<path opacity="0.4" d="M160.849 412.216L35.5436 339.849C34.0439 338.965 32.812 336.635 32.812 334.626V315.556C32.812 313.548 34.0439 312.61 35.5436 313.494L160.849 385.862C162.349 386.745 163.581 389.076 163.581 391.084V410.154C163.581 412.162 162.349 413.1 160.849 412.216Z" fill="#D4ECFF"/>
<path d="M61.6535 345.286L42.9608 334.492C41.4879 333.635 40.3096 331.385 40.3096 329.43C40.3096 327.475 41.4879 326.564 42.9608 327.421L61.6535 338.215C63.1265 339.072 64.3048 341.322 64.3048 343.277C64.3048 345.232 63.1265 346.143 61.6535 345.286Z" fill="#D4ECFF"/>
<path d="M77.5898 350.963C77.5898 352.919 76.224 353.722 74.5368 352.731C72.8497 351.767 71.4839 349.383 71.4839 347.428C71.4839 345.473 72.8497 344.669 74.5368 345.66C76.224 346.625 77.5898 349.008 77.5898 350.963Z" fill="#173D7A"/>
<path d="M99.2285 363.444C99.2285 365.399 97.8627 366.203 96.1755 365.212C94.4884 364.248 93.1226 361.864 93.1226 359.909C93.1226 357.954 94.4884 357.15 96.1755 358.141C97.8627 359.132 99.2285 361.489 99.2285 363.444Z" fill="#D4ECFF"/>
<path d="M110.019 369.685C110.019 371.64 108.653 372.443 106.966 371.452C105.279 370.488 103.913 368.104 103.913 366.149C103.913 364.194 105.279 363.391 106.966 364.382C108.653 365.346 110.019 367.729 110.019 369.685Z" fill="#173D7A"/>
<path d="M155.572 401.583L149.278 397.941C148.341 397.405 147.564 395.932 147.564 394.673V388.004C147.564 386.745 148.314 386.183 149.278 386.719L155.572 390.361C156.509 390.897 157.286 392.37 157.286 393.629V400.298C157.286 401.556 156.536 402.119 155.572 401.583Z" fill="#173D7A"/>
<path d="M164.678 465.808L31.7139 389.049C28.7413 387.335 26.3311 382.728 26.3311 378.764V353.401C26.3311 349.437 28.7413 347.615 31.7139 349.33L164.678 426.089C167.651 427.804 170.061 432.41 170.061 436.374V461.737C170.061 465.701 167.651 467.523 164.678 465.808Z" fill="#5793CE"/>
<path opacity="0.4" d="M160.849 456.917L35.5436 384.549C34.0439 383.665 32.812 381.335 32.812 379.326V360.257C32.812 358.248 34.0439 357.311 35.5436 358.195L160.849 430.562C162.349 431.446 163.581 433.776 163.581 435.785V454.854C163.581 456.863 162.349 457.8 160.849 456.917Z" fill="#D4ECFF"/>
<path d="M61.6535 389.986L42.9608 379.193C41.4879 378.336 40.3096 376.086 40.3096 374.131C40.3096 372.176 41.4879 371.265 42.9608 372.122L61.6535 382.915C63.1265 383.773 64.3048 386.022 64.3048 387.977C64.3048 389.933 63.1265 390.843 61.6535 389.986Z" fill="#D4ECFF"/>
<path d="M81.0154 398.075C81.0154 401.771 78.4177 403.27 75.2309 401.422C72.044 399.574 69.4463 395.075 69.4463 391.406C69.4463 387.736 72.044 386.21 75.2309 388.058C78.4177 389.906 81.0154 394.405 81.0154 398.075Z" fill="white"/>
<path d="M103.405 411.198C103.405 413.153 102.039 413.957 100.352 412.966C98.6646 412.002 97.2988 409.618 97.2988 407.663C97.2988 405.708 98.6646 404.904 100.352 405.895C102.039 406.859 103.405 409.243 103.405 411.198Z" fill="#173D7A"/>
<path d="M114.224 417.439C114.224 419.394 112.858 420.197 111.171 419.206C109.484 418.215 108.118 415.858 108.118 413.903C108.118 411.948 109.484 411.145 111.171 412.136C112.858 413.1 114.224 415.483 114.224 417.439Z" fill="#D4ECFF"/>
<path d="M125.043 423.679C125.043 425.634 123.678 426.438 121.99 425.447C120.303 424.456 118.938 422.099 118.938 420.144C118.938 418.188 120.303 417.385 121.99 418.376C123.678 419.367 125.043 421.724 125.043 423.679Z" fill="#173D7A"/>
<path d="M155.572 446.31L149.278 442.668C148.341 442.132 147.564 440.659 147.564 439.4V432.732C147.564 431.473 148.314 430.91 149.278 431.446L155.572 435.088C156.509 435.624 157.286 437.097 157.286 438.356V445.025C157.286 446.284 156.536 446.846 155.572 446.31Z" fill="#D4ECFF"/>
<path d="M155.839 578.056C155.384 578.056 154.929 577.949 154.527 577.707L3.37838 491.815C1.53053 490.77 0.432542 488.895 0.405762 486.779C0.405762 484.664 1.47698 482.762 3.29804 481.691L68.1333 443.418C70.4097 442.079 71.829 439.588 71.829 436.936V394.753C71.829 393.28 73.0342 392.075 74.5071 392.075C75.98 392.075 77.1851 393.28 77.1851 394.753V436.936C77.1851 441.49 74.7481 445.721 70.8382 448.051L6.00286 486.324C5.84217 486.431 5.76184 486.565 5.76184 486.753C5.76184 486.94 5.84218 487.101 6.02964 487.181L157.178 573.074C158.464 573.797 158.919 575.431 158.196 576.716C157.714 577.574 156.803 578.082 155.866 578.082L155.839 578.056Z" fill="#5793CE"/>
<path d="M127.055 567.625L134.195 555.171L107.316 539.757L100.176 552.21L127.055 567.625Z" fill="#5793CE"/>
<path d="M98.6904 548.916C98.6904 545.675 100.94 541.738 103.752 540.104C106.564 538.47 108.84 539.783 108.84 543.024C108.84 546.264 106.591 550.201 103.779 551.835C100.967 553.469 98.6904 552.157 98.6904 548.916Z" fill="#5793CE"/>
<path d="M162.303 592.98L173.879 572.789L131.713 548.609L120.137 568.8L162.303 592.98Z" fill="#5793CE"/>
<path d="M129.783 552.639L120.677 547.416C116.901 550.121 113.955 555.263 113.527 559.87L122.632 565.093C126.408 562.388 129.354 557.245 129.783 552.639Z" fill="#396CAA"/>
<path d="M117.732 563.486C117.732 558.236 121.375 551.862 125.927 549.21C130.453 546.586 134.149 548.701 134.176 553.924C134.176 559.174 130.533 565.548 125.981 568.199C121.455 570.824 117.759 568.708 117.732 563.486Z" fill="#5793CE"/>
<path d="M107.154 545.595C105.842 544.845 105.842 543.613 107.154 542.836C108.466 542.086 110.609 542.059 111.921 542.836C113.233 543.586 113.233 544.818 111.921 545.595C110.609 546.345 108.466 546.372 107.154 545.595Z" fill="#D4ECFF"/>
<path d="M403.584 837.341L92.5571 657.762C83.7464 652.673 84.8711 643.808 95.0209 637.942L306.8 515.705C316.95 509.84 332.322 509.197 341.133 514.286L652.16 693.865C660.971 698.954 659.846 707.819 649.696 713.684L437.917 835.922C427.767 841.787 412.395 842.43 403.584 837.341V837.341Z" fill="#B2D3EA"/>
<path d="M725.031 375.711L414.003 196.131C410.388 194.042 406.719 193.721 403.452 194.846L402.889 195.033C402.889 195.033 402.809 195.06 402.755 195.087L391.508 199.399L401.604 204.327C401.55 204.514 401.497 204.675 401.47 204.863L350.802 435.49C348.257 447.034 353.346 460.505 362.13 465.594L665.685 640.862L664.614 653.717L676.906 648.95C681.03 647.022 684.324 642.656 685.717 636.442L736.385 405.815C738.93 394.271 733.841 380.799 725.057 375.711H725.031Z" fill="#173D7A"/>
<path d="M725.029 375.711L414.002 196.131C410.387 194.042 406.718 193.721 403.451 194.846L402.888 195.033C402.888 195.033 402.808 195.06 402.754 195.087L391.507 199.399L401.603 204.327C401.549 204.514 401.496 204.675 401.469 204.863L368.074 356.856L520.267 475.424L734.858 388.111C732.796 382.755 729.368 378.228 725.029 375.711V375.711Z" fill="#396CAA"/>
<path d="M713.299 411.171L736.973 401.101C737.401 391.941 733.598 382.46 727.385 377.398L689.919 393.173L713.325 411.198L713.299 411.171Z" fill="#274F89"/>
<path d="M653.819 652.485L342.792 472.906C333.981 467.817 328.92 454.345 331.464 442.802L382.132 212.174C384.676 200.631 393.862 195.381 402.646 200.47L713.673 380.05C722.484 385.138 727.546 398.61 725.001 410.154L674.333 640.781C671.789 652.325 662.603 657.574 653.819 652.485Z" fill="#D4ECFF"/>
<path d="M647.072 635.344L354.549 466.532C346.488 461.871 341.855 449.551 344.159 438.999L390.515 227.949C392.845 217.397 401.254 212.603 409.288 217.236L701.811 386.049C709.872 390.709 714.504 403.029 712.201 413.582L665.845 624.631C663.515 635.184 655.106 639.978 647.072 635.344V635.344Z" fill="white"/>
<path d="M647.072 635.344L354.549 466.532C346.488 461.871 341.855 449.551 344.159 438.999L390.515 227.949C392.845 217.397 401.254 212.603 409.288 217.236L701.811 386.049C709.872 390.709 714.504 403.029 712.201 413.582L665.845 624.631C663.515 635.184 655.106 639.978 647.072 635.344V635.344Z" fill="#2B3758"/>
<path d="M658.105 660.306L615.578 654.682L341.133 496.207C332.322 491.118 316.977 491.761 306.8 497.627L112.321 609.874L86.6119 606.472V621.069C86.4512 624.444 88.3526 627.684 92.5036 630.095L403.531 809.674C412.342 814.763 427.687 814.12 437.863 808.255L649.643 686.018C655.347 682.723 658.212 678.465 658.052 674.474V660.306H658.105Z" fill="#173D7A"/>
<path d="M451.896 560.191L432.4 548.943H218.023L112.348 609.927L86.6388 606.526V621.123C86.4781 624.497 88.3795 627.738 92.5304 630.148L403.558 809.728C408.218 812.406 414.698 813.477 421.286 813.049L451.87 560.218L451.896 560.191Z" fill="#396CAA"/>
<path d="M98.0472 608.026L86.6388 606.526V621.123C86.4781 624.497 88.3795 627.738 92.5304 630.148L98.0204 633.309V608.053L98.0472 608.026Z" fill="#5793CE"/>
<path d="M406.717 811.174C415.045 814.335 426.99 813.638 435.881 809.353V776.812H406.717V811.174Z" fill="#274F89"/>
<path d="M403.584 795.131L92.5571 615.552C83.7464 610.463 84.8711 601.598 95.0209 595.732L306.8 473.495C316.95 467.63 332.322 466.987 341.133 472.076L652.16 651.655C660.971 656.744 659.846 665.609 649.696 671.474L437.917 793.712C427.767 799.577 412.395 800.22 403.584 795.131V795.131Z" fill="#D4ECFF"/>
<path d="M649.697 666.145L437.918 788.382C427.768 794.247 412.396 794.89 403.585 789.801L92.558 610.222C89.6657 608.561 87.8714 606.472 87.0948 604.249C85.729 608.401 87.4697 612.632 92.558 615.552L403.585 795.131C412.396 800.22 427.741 799.577 437.918 793.712L649.697 671.475C656.526 667.537 659.231 662.234 657.624 657.628C656.633 660.654 653.982 663.654 649.697 666.145V666.145Z" fill="white"/>
<path d="M224.852 556.094L210.766 547.978C209.641 547.336 209.775 546.184 211.087 545.434L227.691 535.846C229.003 535.096 230.958 535.016 232.11 535.658L246.169 543.774C247.294 544.416 247.16 545.568 245.848 546.318L229.244 555.906C227.932 556.656 225.977 556.736 224.825 556.094H224.852Z" fill="#173D7A"/>
<path d="M246.572 568.628L232.485 560.513C231.361 559.87 231.494 558.719 232.807 557.969L249.41 548.38C250.723 547.63 252.678 547.55 253.829 548.193L267.889 556.308C269.014 556.951 268.88 558.103 267.568 558.852L250.964 568.441C249.652 569.191 247.697 569.271 246.545 568.628H246.572Z" fill="#173D7A"/>
<path d="M268.318 581.189L254.231 573.074C253.107 572.431 253.241 571.28 254.553 570.53L271.157 560.941C272.469 560.191 274.424 560.111 275.575 560.754L289.635 568.869C290.76 569.512 290.626 570.664 289.314 571.413L272.71 581.002C271.398 581.752 269.443 581.832 268.291 581.189H268.318Z" fill="#173D7A"/>
<path d="M298.364 570.824L284.278 562.709C283.153 562.066 283.287 560.915 284.599 560.165L298.552 552.103C299.864 551.353 301.819 551.273 302.97 551.916L317.057 560.031C318.182 560.674 318.048 561.825 316.736 562.575L302.783 570.637C301.471 571.387 299.516 571.467 298.364 570.824Z" fill="#173D7A"/>
<path d="M320.11 583.359L306.05 575.243C304.925 574.601 305.059 573.449 306.372 572.699L320.324 564.637C321.636 563.888 323.591 563.807 324.743 564.45L338.803 572.565C339.927 573.208 339.794 574.36 338.481 575.11L324.529 583.171C323.216 583.921 321.261 584.001 320.11 583.359Z" fill="#173D7A"/>
<path d="M341.83 595.92L327.77 587.805C326.645 587.162 326.779 586.01 328.091 585.26L342.044 577.199C343.356 576.449 345.311 576.368 346.463 577.011L360.549 585.126C361.674 585.769 361.54 586.921 360.228 587.671L346.275 595.733C344.963 596.482 343.008 596.563 341.856 595.92H341.83Z" fill="#173D7A"/>
<path d="M363.573 608.481L349.514 600.366C348.389 599.723 348.523 598.571 349.835 597.821L363.788 589.76C365.1 589.01 367.055 588.93 368.206 589.572L382.266 597.688C383.391 598.33 383.257 599.482 381.945 600.232L367.992 608.294C366.68 609.043 364.725 609.124 363.573 608.481Z" fill="#173D7A"/>
<path d="M385.294 621.015L371.234 612.9C370.109 612.257 370.243 611.106 371.555 610.356L385.508 602.294C386.82 601.544 388.775 601.464 389.927 602.107L404.013 610.222C405.138 610.865 405.004 612.016 403.692 612.766L389.739 620.828C388.427 621.578 386.472 621.658 385.32 621.015H385.294Z" fill="#173D7A"/>
<path d="M407.039 633.577L392.979 625.461C391.855 624.819 391.989 623.667 393.301 622.917L407.253 614.855C408.566 614.105 410.521 614.025 411.672 614.668L425.732 622.783C426.857 623.426 426.723 624.578 425.41 625.327L411.458 633.389C410.146 634.139 408.191 634.219 407.039 633.577Z" fill="#173D7A"/>
<path d="M428.759 646.111L414.699 637.996C413.574 637.353 413.708 636.201 415.021 635.452L428.973 627.39C430.285 626.64 432.24 626.56 433.392 627.202L447.452 635.318C448.576 635.96 448.442 637.112 447.13 637.862L433.178 645.924C431.865 646.674 429.91 646.754 428.759 646.111Z" fill="#173D7A"/>
<path d="M450.503 658.672L436.443 650.557C435.318 649.914 435.452 648.762 436.764 648.013L450.717 639.951C452.029 639.201 453.984 639.121 455.136 639.763L469.195 647.879C470.32 648.521 470.186 649.673 468.874 650.423L454.921 658.485C453.609 659.235 451.654 659.315 450.503 658.672Z" fill="#173D7A"/>
<path d="M472.223 671.207L458.136 663.091C457.011 662.449 457.145 661.297 458.458 660.547L472.41 652.485C473.722 651.735 475.677 651.655 476.829 652.298L490.889 660.413C492.013 661.056 491.879 662.208 490.567 662.958L476.615 671.019C475.302 671.769 473.347 671.849 472.196 671.207H472.223Z" fill="#173D7A"/>
<path d="M493.968 683.768L479.882 675.653C478.757 675.01 478.891 673.858 480.203 673.108L494.156 665.047C495.468 664.297 497.423 664.216 498.574 664.859L512.634 672.974C513.759 673.617 513.625 674.769 512.313 675.519L498.36 683.58C497.048 684.33 495.093 684.411 493.941 683.768H493.968Z" fill="#173D7A"/>
<path d="M330.394 564.878L316.307 556.763C315.182 556.12 315.316 554.969 316.628 554.219L330.581 546.157C331.893 545.407 333.848 545.327 335 545.97L349.086 554.085C350.211 554.728 350.077 555.879 348.765 556.629L334.812 564.691C333.5 565.441 331.545 565.521 330.394 564.878Z" fill="#396CAA"/>
<path d="M308.326 552.156L294.266 544.041C293.141 543.398 293.275 542.247 294.587 541.497L308.54 533.435C309.852 532.685 311.807 532.605 312.959 533.248L327.018 541.363C328.143 542.006 328.009 543.157 326.697 543.907L312.744 551.969C311.432 552.719 309.477 552.799 308.326 552.156Z" fill="#396CAA"/>
<path d="M286.234 539.381L255.918 521.892C254.794 521.249 254.928 520.098 256.24 519.348L270.192 511.286C271.505 510.536 273.46 510.456 274.611 511.099L304.926 528.588C306.051 529.231 305.917 530.382 304.605 531.132L290.653 539.194C289.34 539.944 287.385 540.024 286.234 539.381V539.381Z" fill="#173D7A"/>
<path d="M301.684 523.874L277.1 509.679C275.975 509.036 276.109 507.884 277.421 507.135L291.373 499.073C292.686 498.323 294.641 498.243 295.792 498.885L320.377 513.08C321.501 513.723 321.367 514.875 320.055 515.625L306.103 523.686C304.79 524.436 302.835 524.517 301.684 523.874Z" fill="#173D7A"/>
<path d="M352.113 577.44L338.054 569.325C336.929 568.682 337.063 567.53 338.375 566.78L352.328 558.718C353.64 557.969 355.595 557.888 356.746 558.531L370.806 566.646C371.931 567.289 371.797 568.441 370.485 569.191L356.532 577.252C355.22 578.002 353.265 578.083 352.113 577.44Z" fill="#396CAA"/>
<path d="M373.859 589.974L359.799 581.859C358.674 581.216 358.808 580.064 360.121 579.314L374.073 571.253C375.385 570.503 377.34 570.422 378.492 571.065L392.578 579.18C393.703 579.823 393.569 580.975 392.257 581.725L378.304 589.786C376.992 590.536 375.037 590.617 373.886 589.974H373.859Z" fill="#173D7A"/>
<path d="M395.576 602.535L381.517 594.42C380.392 593.777 380.526 592.626 381.838 591.876L395.79 583.814C397.103 583.064 399.058 582.984 400.209 583.627L414.269 591.742C415.394 592.385 415.26 593.536 413.948 594.286L399.995 602.348C398.683 603.098 396.728 603.178 395.576 602.535Z" fill="#173D7A"/>
<path d="M417.323 615.07L403.263 606.954C402.138 606.312 402.272 605.16 403.584 604.41L417.537 596.348C418.849 595.598 420.804 595.518 421.956 596.161L436.042 604.276C437.167 604.919 437.033 606.071 435.721 606.821L421.768 614.882C420.456 615.632 418.501 615.712 417.35 615.07H417.323Z" fill="#173D7A"/>
<path d="M439.042 627.631L424.982 619.516C423.857 618.873 423.991 617.721 425.303 616.971L439.256 608.91C440.568 608.16 442.523 608.079 443.675 608.722L457.734 616.837C458.859 617.48 458.725 618.632 457.413 619.382L443.46 627.443C442.148 628.193 440.193 628.274 439.042 627.631Z" fill="#173D7A"/>
<path d="M460.788 640.165L446.728 632.05C445.604 631.407 445.738 630.255 447.05 629.505L461.002 621.444C462.315 620.694 464.27 620.614 465.421 621.256L479.481 629.372C480.606 630.014 480.472 631.166 479.159 631.916L465.207 639.978C463.895 640.728 461.94 640.808 460.788 640.165Z" fill="#173D7A"/>
<path d="M482.505 652.726L468.446 644.611C467.321 643.968 467.455 642.817 468.767 642.067L482.72 634.005C484.032 633.255 485.987 633.175 487.138 633.818L501.198 641.933C502.323 642.576 502.189 643.727 500.877 644.477L486.924 652.539C485.612 653.289 483.657 653.369 482.505 652.726Z" fill="#173D7A"/>
<path d="M504.252 665.261L490.165 657.146C489.041 656.503 489.175 655.351 490.487 654.601L504.439 646.54C505.752 645.79 507.707 645.709 508.858 646.352L522.918 654.467C524.043 655.11 523.909 656.262 522.597 657.012L508.644 665.073C507.332 665.823 505.377 665.904 504.225 665.261H504.252Z" fill="#173D7A"/>
<path d="M525.972 677.822L511.885 669.707C510.76 669.064 510.894 667.912 512.207 667.162L526.159 659.101C527.471 658.351 529.426 658.271 530.578 658.913L544.638 667.029C545.762 667.671 545.628 668.823 544.316 669.573L530.364 677.635C529.051 678.384 527.096 678.465 525.945 677.822H525.972Z" fill="#173D7A"/>
<path d="M564.615 700.132L533.898 682.402C532.773 681.759 532.907 680.607 534.219 679.858L548.172 671.796C549.484 671.046 551.439 670.966 552.591 671.608L583.308 689.339C584.432 689.981 584.299 691.133 582.986 691.883L569.034 699.945C567.721 700.695 565.767 700.775 564.615 700.132Z" fill="#173D7A"/>
<path d="M606.928 675.706L581.004 660.735C579.88 660.092 580.013 658.94 581.326 658.19L595.278 650.129C596.591 649.379 598.545 649.298 599.697 649.941L625.62 664.913C626.745 665.555 626.611 666.707 625.299 667.457L611.346 675.519C610.034 676.269 608.079 676.349 606.928 675.706V675.706Z" fill="#173D7A"/>
<path d="M390.168 574.976L376.108 566.86C374.983 566.218 375.117 565.066 376.429 564.316L390.382 556.254C391.694 555.504 393.649 555.424 394.801 556.067L408.86 564.182C409.985 564.825 409.851 565.977 408.539 566.726L394.586 574.788C393.274 575.538 391.319 575.618 390.168 574.976Z" fill="#173D7A"/>
<path d="M367.913 562.12L353.827 554.005C352.702 553.362 352.836 552.21 354.148 551.46L368.101 543.399C369.413 542.649 371.368 542.568 372.519 543.211L386.579 551.326C387.704 551.969 387.57 553.121 386.258 553.871L372.305 561.932C370.993 562.682 369.038 562.763 367.886 562.12H367.913Z" fill="#173D7A"/>
<path d="M345.63 549.264L331.544 541.149C330.419 540.506 330.553 539.354 331.865 538.604L345.818 530.543C347.13 529.793 349.085 529.713 350.237 530.355L364.296 538.471C365.421 539.113 365.287 540.265 363.975 541.015L350.022 549.077C348.71 549.826 346.755 549.907 345.604 549.264H345.63Z" fill="#396CAA"/>
<path d="M323.35 536.381L309.29 528.266C308.166 527.623 308.3 526.472 309.612 525.722L323.564 517.66C324.877 516.91 326.832 516.83 327.983 517.473L342.043 525.588C343.168 526.231 343.034 527.382 341.722 528.132L327.769 536.194C326.457 536.944 324.502 537.024 323.35 536.381Z" fill="#173D7A"/>
<path d="M411.914 587.537L397.854 579.422C396.73 578.779 396.864 577.627 398.176 576.877L412.128 568.816C413.441 568.066 415.396 567.985 416.547 568.628L430.607 576.743C431.732 577.386 431.598 578.538 430.285 579.288L416.333 587.349C415.021 588.099 413.066 588.18 411.914 587.537Z" fill="#173D7A"/>
<path d="M433.632 600.071L419.545 591.956C418.421 591.313 418.554 590.162 419.867 589.412L433.819 581.35C435.132 580.6 437.086 580.52 438.238 581.163L452.298 589.278C453.423 589.921 453.289 591.072 451.976 591.822L438.024 599.884C436.712 600.634 434.757 600.714 433.605 600.071H433.632Z" fill="#173D7A"/>
<path d="M455.377 612.632L441.318 604.517C440.193 603.874 440.327 602.723 441.639 601.973L455.592 593.911C456.904 593.161 458.859 593.081 460.011 593.724L474.07 601.839C475.195 602.482 475.061 603.633 473.749 604.383L459.796 612.445C458.484 613.195 456.529 613.275 455.377 612.632Z" fill="#173D7A"/>
<path d="M477.123 625.167L463.037 617.052C461.912 616.409 462.046 615.257 463.358 614.507L477.31 606.446C478.623 605.696 480.578 605.615 481.729 606.258L495.816 614.373C496.941 615.016 496.807 616.168 495.494 616.918L481.542 624.979C480.23 625.729 478.275 625.81 477.123 625.167Z" fill="#173D7A"/>
<path d="M498.841 637.728L484.754 629.613C483.63 628.97 483.763 627.818 485.076 627.069L499.028 619.007C500.341 618.257 502.295 618.177 503.447 618.819L517.507 626.935C518.632 627.577 518.498 628.729 517.185 629.479L503.233 637.541C501.921 638.291 499.966 638.371 498.814 637.728H498.841Z" fill="#173D7A"/>
<path d="M520.589 650.262L506.529 642.147C505.404 641.504 505.538 640.353 506.851 639.603L520.803 631.541C522.115 630.791 524.07 630.711 525.222 631.354L539.282 639.469C540.406 640.112 540.273 641.263 538.96 642.013L525.008 650.075C523.695 650.825 521.74 650.905 520.589 650.262Z" fill="#173D7A"/>
<path d="M542.307 662.824L528.247 654.708C527.122 654.066 527.256 652.914 528.568 652.164L542.521 644.102C543.833 643.352 545.788 643.272 546.94 643.915L561.026 652.03C562.151 652.673 562.017 653.825 560.705 654.574L546.752 662.636C545.44 663.386 543.485 663.466 542.333 662.824H542.307Z" fill="#173D7A"/>
<path d="M564.052 675.358L549.993 667.243C548.868 666.6 549.002 665.448 550.314 664.698L564.267 656.637C565.579 655.887 567.534 655.806 568.685 656.449L582.745 664.565C583.87 665.207 583.736 666.359 582.424 667.109L568.471 675.171C567.159 675.92 565.204 676.001 564.052 675.358Z" fill="#173D7A"/>
<path d="M585.772 687.919L571.712 679.804C570.588 679.161 570.721 678.01 572.034 677.26L585.986 669.198C587.299 668.448 589.254 668.368 590.405 669.011L604.492 677.126C605.616 677.769 605.482 678.92 604.17 679.67L590.218 687.732C588.905 688.482 586.95 688.562 585.799 687.919H585.772Z" fill="#173D7A"/>
<path d="M378.732 543.934L364.672 535.819C363.547 535.176 363.681 534.025 364.993 533.275L378.946 525.213C380.258 524.463 382.213 524.383 383.365 525.026L397.424 533.141C398.549 533.784 398.415 534.935 397.103 535.685L383.15 543.747C381.838 544.497 379.883 544.577 378.732 543.934Z" fill="#173D7A"/>
<path d="M357.121 531.453L343.061 523.338C341.937 522.695 342.071 521.544 343.383 520.794L357.335 512.732C358.648 511.982 360.603 511.902 361.754 512.545L375.814 520.66C376.939 521.303 376.805 522.454 375.493 523.204L361.54 531.266C360.228 532.016 358.273 532.096 357.121 531.453Z" fill="#173D7A"/>
<path d="M335.482 518.972L321.423 510.857C320.298 510.214 320.432 509.063 321.744 508.313L335.697 500.251C337.009 499.501 338.964 499.421 340.115 500.064L354.202 508.179C355.327 508.822 355.193 509.973 353.881 510.723L339.928 518.785C338.616 519.535 336.661 519.615 335.509 518.972H335.482Z" fill="#173D7A"/>
<path d="M313.87 506.465L299.81 498.35C298.686 497.707 298.82 496.555 300.132 495.805L314.084 487.744C315.397 486.994 317.352 486.913 318.503 487.556L332.59 495.671C333.714 496.314 333.581 497.466 332.268 498.216L318.316 506.277C317.003 507.027 315.049 507.108 313.897 506.465H313.87Z" fill="#173D7A"/>
<path d="M336.098 493.636L322.011 485.521C320.886 484.878 321.02 483.726 322.333 482.976L326.939 480.325C328.251 479.575 330.206 479.495 331.357 480.137L345.444 488.253C346.569 488.895 346.435 490.047 345.123 490.797L340.516 493.448C339.204 494.198 337.249 494.279 336.098 493.636Z" fill="#173D7A"/>
<path d="M364.324 509.92L350.265 501.805C349.14 501.162 349.274 500.01 350.586 499.26L355.192 496.609C356.504 495.859 358.459 495.779 359.611 496.421L373.671 504.537C374.795 505.179 374.662 506.331 373.349 507.081L368.743 509.732C367.431 510.482 365.476 510.563 364.324 509.92Z" fill="#173D7A"/>
<path d="M385.856 522.374L371.796 514.259C370.671 513.616 370.805 512.464 372.117 511.714L376.723 509.063C378.036 508.313 379.991 508.233 381.142 508.875L395.202 516.991C396.327 517.633 396.193 518.785 394.881 519.535L390.274 522.186C388.962 522.936 387.007 523.017 385.856 522.374Z" fill="#173D7A"/>
<path d="M407.387 534.801L393.328 526.686C392.203 526.043 392.337 524.892 393.649 524.142L398.255 521.49C399.567 520.74 401.522 520.66 402.674 521.303L416.76 529.418C417.885 530.061 417.751 531.212 416.439 531.962L411.833 534.614C410.521 535.364 408.566 535.444 407.414 534.801H407.387Z" fill="#173D7A"/>
<path d="M428.919 547.229L414.859 539.113C413.734 538.47 413.868 537.319 415.18 536.569L419.786 533.917C421.099 533.168 423.054 533.087 424.205 533.73L438.265 541.845C439.39 542.488 439.256 543.64 437.944 544.39L433.337 547.041C432.025 547.791 430.07 547.871 428.919 547.229Z" fill="#173D7A"/>
<path d="M549.136 616.65L535.049 608.535C533.924 607.892 534.058 606.74 535.371 605.99L539.977 603.339C541.289 602.589 543.244 602.508 544.396 603.151L558.455 611.266C559.58 611.909 559.446 613.061 558.134 613.811L553.528 616.462C552.215 617.212 550.26 617.293 549.109 616.65H549.136Z" fill="#173D7A"/>
<path d="M570.695 629.077L556.635 620.962C555.51 620.319 555.644 619.167 556.957 618.417L561.563 615.766C562.875 615.016 564.83 614.936 565.982 615.578L580.041 623.694C581.166 624.336 581.032 625.488 579.72 626.238L575.114 628.89C573.801 629.639 571.846 629.72 570.695 629.077Z" fill="#173D7A"/>
<path d="M592.227 641.531L578.167 633.416C577.042 632.773 577.176 631.621 578.488 630.872L583.095 628.22C584.407 627.47 586.362 627.39 587.513 628.033L601.573 636.148C602.698 636.791 602.564 637.942 601.252 638.692L596.645 641.344C595.333 642.094 593.378 642.174 592.227 641.531Z" fill="#173D7A"/>
<path d="M613.756 653.958L599.669 645.843C598.545 645.2 598.678 644.049 599.991 643.299L604.597 640.647C605.909 639.897 607.864 639.817 609.016 640.46L623.075 648.575C624.2 649.218 624.066 650.37 622.754 651.119L618.148 653.771C616.836 654.521 614.881 654.601 613.729 653.958H613.756Z" fill="#173D7A"/>
<path d="M400.478 556.495L386.418 548.38C385.293 547.737 385.427 546.586 386.739 545.836L400.692 537.774C402.004 537.024 403.959 536.944 405.111 537.587L419.17 545.702C420.295 546.345 420.161 547.496 418.849 548.246L404.896 556.308C403.584 557.058 401.629 557.138 400.478 556.495Z" fill="#173D7A"/>
<path d="M422.197 569.03L408.137 560.915C407.012 560.272 407.146 559.12 408.459 558.37L422.411 550.309C423.723 549.559 425.678 549.478 426.83 550.121L440.89 558.236C442.014 558.879 441.88 560.031 440.568 560.781L426.616 568.842C425.303 569.592 423.348 569.673 422.197 569.03Z" fill="#173D7A"/>
<path d="M443.943 581.591L429.883 573.476C428.758 572.833 428.892 571.681 430.205 570.931L444.157 562.87C445.469 562.12 447.424 562.039 448.576 562.682L462.636 570.797C463.76 571.44 463.627 572.592 462.314 573.342L448.362 581.403C447.049 582.153 445.094 582.234 443.943 581.591Z" fill="#173D7A"/>
<path d="M465.661 594.125L451.575 586.01C450.45 585.367 450.584 584.216 451.896 583.466L465.849 575.404C467.161 574.654 469.116 574.574 470.267 575.217L484.327 583.332C485.452 583.975 485.318 585.126 484.006 585.876L470.053 593.938C468.741 594.688 466.786 594.768 465.634 594.125H465.661Z" fill="#173D7A"/>
<path d="M487.407 606.687L473.347 598.571C472.222 597.929 472.356 596.777 473.668 596.027L487.621 587.965C488.933 587.215 490.888 587.135 492.04 587.778L506.1 595.893C507.224 596.536 507.09 597.688 505.778 598.437L491.826 606.499C490.513 607.249 488.558 607.329 487.407 606.687Z" fill="#173D7A"/>
<path d="M509.127 619.221L495.04 611.106C493.916 610.463 494.05 609.311 495.362 608.561L509.314 600.5C510.627 599.75 512.582 599.669 513.733 600.312L527.793 608.427C528.918 609.07 528.784 610.222 527.472 610.972L513.519 619.034C512.207 619.783 510.252 619.864 509.1 619.221H509.127Z" fill="#173D7A"/>
<path d="M530.87 631.782L516.784 623.667C515.659 623.024 515.793 621.873 517.105 621.123L531.058 613.061C532.37 612.311 534.325 612.231 535.476 612.874L549.536 620.989C550.661 621.632 550.527 622.783 549.215 623.533L535.262 631.595C533.95 632.345 531.995 632.425 530.843 631.782H530.87Z" fill="#173D7A"/>
<path d="M552.589 644.317L538.53 636.201C537.405 635.559 537.539 634.407 538.851 633.657L552.804 625.595C554.116 624.845 556.071 624.765 557.222 625.408L571.309 633.523C572.434 634.166 572.3 635.318 570.988 636.067L557.035 644.129C555.723 644.879 553.768 644.959 552.616 644.317H552.589Z" fill="#173D7A"/>
<path d="M574.336 656.878L560.276 648.762C559.151 648.12 559.285 646.968 560.597 646.218L574.55 638.156C575.862 637.406 577.817 637.326 578.969 637.969L593.055 646.084C594.18 646.727 594.046 647.879 592.734 648.628L578.781 656.69C577.469 657.44 575.514 657.52 574.362 656.878H574.336Z" fill="#173D7A"/>
<path d="M276.217 558.022L234.761 534.078C233.636 533.435 233.77 532.284 235.082 531.534L249.035 523.472C250.347 522.722 252.302 522.642 253.453 523.285L294.909 547.229C296.034 547.871 295.9 549.023 294.588 549.773L280.635 557.835C279.323 558.584 277.368 558.665 276.217 558.022V558.022Z" fill="#173D7A"/>
<path d="M543.217 712.211L501.761 688.267C500.636 687.625 500.77 686.473 502.083 685.723L516.035 677.661C517.347 676.911 519.302 676.831 520.454 677.474L561.91 701.418C563.035 702.061 562.901 703.212 561.589 703.962L547.636 712.024C546.324 712.774 544.369 712.854 543.217 712.211Z" fill="#173D7A"/>
<path d="M456.287 689.74L442.227 681.625C441.103 680.982 441.237 679.831 442.549 679.081L459.153 669.493C460.465 668.743 462.42 668.662 463.571 669.305L477.631 677.42C478.756 678.063 478.622 679.215 477.31 679.965L460.706 689.553C459.394 690.303 457.439 690.383 456.287 689.74Z" fill="#173D7A"/>
<path d="M298.47 598.598L275.975 585.609C274.85 584.966 274.984 583.814 276.296 583.064L292.9 573.476C294.212 572.726 296.167 572.646 297.319 573.288L319.814 586.278C320.939 586.921 320.805 588.073 319.493 588.823L302.889 598.411C301.577 599.161 299.622 599.241 298.47 598.598Z" fill="#173D7A"/>
<path d="M435.346 677.635L412.851 664.645C411.726 664.002 411.86 662.85 413.172 662.1L429.776 652.512C431.088 651.762 433.043 651.682 434.194 652.325L456.69 665.314C457.815 665.957 457.681 667.109 456.369 667.859L439.765 677.447C438.453 678.197 436.498 678.277 435.346 677.635Z" fill="#173D7A"/>
<path d="M329.83 616.704L307.334 603.714C306.21 603.071 306.344 601.919 307.656 601.169L324.26 591.581C325.572 590.831 327.527 590.751 328.678 591.394L351.174 604.383C352.299 605.026 352.165 606.178 350.853 606.928L334.249 616.516C332.936 617.266 330.981 617.346 329.83 616.704Z" fill="#173D7A"/>
<path d="M328.814 591.474L426.67 647.986C427.875 648.682 427.875 649.834 426.67 650.53L409.718 660.306C408.513 661.002 406.531 661.002 405.326 660.306L307.47 603.794L328.814 591.474Z" fill="#173D7A"/>
<path d="M517.026 712.479L532.692 721.532C533.629 722.067 533.495 723.005 532.424 723.621L525.622 727.531C524.551 728.147 522.944 728.228 522.007 727.692L506.34 718.639C505.403 718.104 505.537 717.166 506.608 716.55L513.41 712.613C514.481 711.997 516.088 711.917 517.026 712.452V712.479Z" fill="#173D7A"/>
<path d="M495.12 699.838L510.786 708.89C511.724 709.426 511.59 710.363 510.519 710.979L503.716 714.916C502.645 715.532 501.038 715.613 500.101 715.077L484.434 706.024C483.497 705.489 483.631 704.551 484.702 703.935L491.504 699.998C492.576 699.382 494.182 699.302 495.12 699.838Z" fill="#173D7A"/>
<path d="M473.4 687.276L489.067 696.329C490.004 696.865 489.87 697.802 488.799 698.418L481.997 702.328C480.925 702.944 479.319 703.025 478.381 702.489L462.715 693.436C461.777 692.901 461.911 691.963 462.983 691.347L469.785 687.437C470.856 686.821 472.463 686.741 473.4 687.276Z" fill="#173D7A"/>
<path d="M507.116 692.901L522.782 701.953C523.72 702.489 523.586 703.426 522.515 704.042L515.712 707.953C514.641 708.569 513.034 708.649 512.097 708.113L496.431 699.061C495.493 698.525 495.627 697.588 496.698 696.972L503.501 693.061C504.572 692.445 506.179 692.365 507.116 692.901Z" fill="#173D7A"/>
<g clip-path="url(#clip0_59_218)">
<g clip-path="url(#clip1_59_218)">
<path d="M478.328 308.244L457.52 296.246C455.592 295.121 454.467 292.362 454.976 290.086C455.511 287.809 457.493 286.845 459.421 287.97L480.23 299.969C482.158 301.093 483.283 303.852 482.774 306.129C482.238 308.405 480.256 309.369 478.328 308.244Z" fill="#D4ECFF"/>
<path d="M527.87 336.849L497.207 319.145C495.279 318.02 494.154 315.262 494.663 312.985C495.198 310.708 497.18 309.744 499.108 310.869L529.772 328.573C531.7 329.698 532.825 332.456 532.316 334.733C531.78 337.009 529.799 337.973 527.87 336.849Z" fill="#D4ECFF"/>
<path d="M442.067 405.333L421.259 393.334C419.331 392.209 418.206 389.45 418.715 387.174C419.251 384.897 421.232 383.933 423.16 385.058L443.969 397.057C445.897 398.182 447.022 400.94 446.513 403.217C445.977 405.493 443.996 406.457 442.067 405.333Z" fill="#D4ECFF"/>
<path d="M486.227 430.83L455.564 413.126C453.636 412.001 452.511 409.243 453.02 406.966C453.555 404.69 455.537 403.725 457.465 404.85L488.129 422.554C490.057 423.679 491.182 426.437 490.673 428.714C490.137 430.99 488.156 431.955 486.227 430.83Z" fill="#D4ECFF"/>
<path d="M416.974 292.496L403.986 284.997C402.058 283.872 400.933 281.113 401.442 278.837C401.977 276.56 403.959 275.596 405.887 276.721L418.876 284.22C420.804 285.345 421.929 288.104 421.42 290.38C420.884 292.657 418.902 293.621 416.974 292.496Z" fill="#D4ECFF"/>
<path d="M457.012 335.295L417.324 312.369C415.395 311.244 414.271 308.485 414.779 306.209C415.315 303.932 417.297 302.968 419.225 304.093L458.913 327.019C460.842 328.144 461.966 330.903 461.458 333.179C460.922 335.456 458.94 336.42 457.012 335.295Z" fill="#D4ECFF"/>
<path d="M422.303 354.579L409.315 347.08C407.387 345.955 406.262 343.196 406.771 340.92C407.306 338.643 409.288 337.679 411.216 338.804L424.205 346.303C426.133 347.428 427.258 350.187 426.749 352.463C426.213 354.74 424.231 355.704 422.303 354.579Z" fill="#D4ECFF"/>
<path d="M492.924 474.031L458.216 453.997C456.288 452.872 455.163 450.114 455.672 447.837C456.208 445.561 458.189 444.596 460.118 445.721L494.825 465.755C496.753 466.88 497.878 469.638 497.369 471.915C496.833 474.191 494.852 475.156 492.924 474.031Z" fill="#D4ECFF"/>
<path d="M409.636 386.611L401.307 381.79C399.379 380.665 398.254 377.907 398.763 375.63C399.299 373.354 401.281 372.39 403.209 373.514L411.538 378.335C413.466 379.46 414.591 382.219 414.082 384.495C413.546 386.772 411.564 387.736 409.636 386.611Z" fill="#D4ECFF"/>
<path d="M403.638 422.474L393.274 416.501C391.346 415.376 390.221 412.618 390.73 410.341C391.265 408.064 393.247 407.1 395.175 408.225L405.539 414.198C407.467 415.323 408.592 418.081 408.083 420.358C407.548 422.634 405.566 423.599 403.638 422.474Z" fill="#D4ECFF"/>
<path d="M443.941 445.748L416.625 429.973C414.697 428.848 413.572 426.089 414.081 423.813C414.617 421.536 416.599 420.572 418.527 421.697L445.843 437.472C447.771 438.597 448.896 441.356 448.387 443.632C447.851 445.909 445.87 446.873 443.941 445.748Z" fill="#D4ECFF"/>
<path d="M408.913 445.185L389.283 433.856C387.354 432.731 386.23 429.973 386.738 427.696C387.274 425.42 389.256 424.455 391.184 425.58L410.814 436.909C412.742 438.034 413.867 440.793 413.358 443.069C412.823 445.346 410.841 446.31 408.913 445.185Z" fill="#D4ECFF"/>
<path d="M522.703 491.306L510.09 484.021C508.161 482.896 507.037 480.137 507.546 477.861C508.081 475.584 510.063 474.62 511.991 475.745L524.605 483.03C526.533 484.155 527.658 486.913 527.149 489.19C526.613 491.466 524.631 492.431 522.703 491.306Z" fill="#D4ECFF"/>
<path d="M470.641 382.487L435.934 362.453C434.006 361.328 432.881 358.57 433.39 356.293C433.925 354.017 435.907 353.052 437.835 354.177L472.543 374.211C474.471 375.336 475.596 378.094 475.087 380.371C474.551 382.647 472.569 383.612 470.641 382.487Z" fill="#D4ECFF"/>
<path d="M473.802 364.649L413.332 329.724C411.404 328.6 410.279 325.841 410.788 323.564C411.323 321.288 413.305 320.324 415.233 321.448L475.703 356.373C477.632 357.498 478.756 360.257 478.248 362.533C477.712 364.81 475.73 365.774 473.802 364.649V364.649Z" fill="#D4ECFF"/>
<path d="M440.005 384.469L405.298 364.435C403.369 363.31 402.245 360.552 402.754 358.275C403.289 355.998 405.271 355.034 407.199 356.159L441.906 376.193C443.835 377.318 444.959 380.076 444.451 382.353C443.915 384.629 441.933 385.594 440.005 384.469Z" fill="#D4ECFF"/>
<path d="M496.941 397.673L484.327 390.388C482.399 389.263 481.274 386.504 481.783 384.228C482.318 381.951 484.3 380.987 486.228 382.112L498.842 389.397C500.77 390.522 501.895 393.28 501.386 395.557C500.85 397.833 498.869 398.798 496.941 397.673Z" fill="#D4ECFF"/>
<path d="M621.414 390.87L546.751 347.749C544.823 346.624 543.698 343.866 544.207 341.589C544.742 339.313 546.724 338.349 548.652 339.473L623.316 382.594C625.244 383.719 626.369 386.477 625.86 388.754C625.324 391.031 623.343 391.995 621.414 390.87Z" fill="#D4ECFF"/>
<path d="M439.014 423.224L397.29 399.146C395.362 398.021 394.237 395.262 394.746 392.986C395.282 390.709 397.264 389.745 399.192 390.87L440.916 414.948C442.844 416.072 443.969 418.831 443.46 421.108C442.924 423.384 440.942 424.348 439.014 423.224Z" fill="#D4ECFF"/>
<path d="M438.666 285.345L408.003 267.642C406.075 266.517 404.95 263.758 405.459 261.482C405.994 259.205 407.976 258.241 409.904 259.366L440.568 277.069C442.496 278.194 443.621 280.953 443.112 283.229C442.576 285.506 440.595 286.47 438.666 285.345Z" fill="#D4ECFF"/>
<path d="M403.45 461.711L367.939 441.195C366.011 440.07 364.886 437.311 365.395 435.035C365.931 432.758 367.913 431.794 369.841 432.919L405.351 453.435C407.28 454.56 408.404 457.318 407.896 459.595C407.36 461.871 405.378 462.835 403.45 461.711Z" fill="#D4ECFF"/>
</g>
<path d="M643.804 536.569L622.995 524.57C621.067 523.445 619.942 520.687 620.451 518.41C620.987 516.133 622.969 515.169 624.897 516.294L645.705 528.293C647.633 529.418 648.758 532.176 648.249 534.453C647.714 536.73 645.732 537.694 643.804 536.569Z" fill="#D4ECFF"/>
<path d="M658.749 466.532L619.06 443.605C617.132 442.48 616.007 439.722 616.516 437.445C617.052 435.169 619.034 434.205 620.962 435.329L660.65 458.256C662.578 459.38 663.703 462.139 663.194 464.416C662.659 466.692 660.677 467.656 658.749 466.532Z" fill="#D4ECFF"/>
<path d="M624.041 485.815L611.052 478.316C609.124 477.191 607.999 474.432 608.508 472.156C609.044 469.879 611.025 468.915 612.953 470.04L625.942 477.539C627.87 478.664 628.995 481.423 628.486 483.699C627.951 485.976 625.969 486.94 624.041 485.815Z" fill="#D4ECFF"/>
<path d="M611.373 517.848L603.044 513.027C601.116 511.902 599.991 509.143 600.5 506.867C601.036 504.59 603.017 503.626 604.946 504.751L613.274 509.572C615.203 510.697 616.327 513.455 615.819 515.732C615.283 518.008 613.301 518.972 611.373 517.848V517.848Z" fill="#D4ECFF"/>
<path d="M672.352 513.723L637.644 493.689C635.716 492.565 634.591 489.806 635.1 487.529C635.636 485.253 637.618 484.289 639.546 485.414L674.253 505.447C676.181 506.572 677.306 509.331 676.797 511.607C676.262 513.884 674.28 514.848 672.352 513.723Z" fill="#D4ECFF"/>
<path d="M675.539 495.886L615.069 460.961C613.141 459.836 612.016 457.077 612.525 454.801C613.061 452.524 615.042 451.56 616.971 452.685L677.441 487.61C679.369 488.734 680.494 491.493 679.985 493.77C679.449 496.046 677.467 497.01 675.539 495.886Z" fill="#D4ECFF"/>
<path d="M641.742 515.705L607.035 495.672C605.107 494.547 603.982 491.788 604.491 489.511C605.026 487.235 607.008 486.271 608.936 487.396L643.644 507.429C645.572 508.554 646.697 511.313 646.188 513.589C645.652 515.866 643.671 516.83 641.742 515.705V515.705Z" fill="#D4ECFF"/>
<path d="M640.751 554.46L599.027 530.382C597.099 529.257 595.974 526.498 596.483 524.222C597.019 521.945 599 520.981 600.929 522.106L642.652 546.184C644.581 547.309 645.705 550.067 645.197 552.344C644.661 554.621 642.679 555.585 640.751 554.46V554.46Z" fill="#D4ECFF"/>
</g>
<path fill-rule="evenodd" clip-rule="evenodd" d="M105.524 198.248L131.482 230.609C132.213 230.134 133.067 229.834 134.036 229.741C139.419 229.262 146.286 235.356 149.413 243.403C152.508 251.43 150.67 258.33 145.287 258.847C144.325 258.932 143.316 258.808 142.288 258.5L142.288 293.262C143.305 294.134 144.303 295.166 145.254 296.349C150.67 303.101 152.508 312.122 149.381 316.558C146.286 321.012 139.387 319.159 134.003 312.463C132.932 311.13 132 309.703 131.221 308.238L105.421 310.611C105.79 312.116 105.989 313.613 105.989 315.05C105.989 322.225 100.96 325.189 94.7383 321.597C88.5165 318.005 83.4875 309.271 83.4875 302.058C83.4875 300.776 83.6464 299.63 83.9427 298.631L57.9915 266.278C57.2683 266.741 56.4264 267.032 55.4733 267.124C50.0574 267.585 43.1908 261.49 40.096 253.462C37.0013 245.434 38.8388 238.535 44.2224 238.018C45.1743 237.933 46.1725 238.054 47.1883 238.355L47.1883 203.593C46.1608 202.715 45.1513 201.674 44.1902 200.479C38.8065 193.783 36.969 184.724 40.0638 180.27C43.1586 175.816 50.0574 177.668 55.441 184.364C56.4043 185.569 57.2541 186.847 57.9824 188.159L83.9475 185.771C83.6481 184.423 83.4875 183.085 83.4875 181.796C83.4875 174.584 88.5165 171.657 94.7383 175.249C100.96 178.842 105.989 187.575 105.989 194.788C105.989 196.084 105.827 197.242 105.524 198.248ZM102.82 202.039L128.84 234.478C128.035 237.288 128.331 241.09 129.909 245.185C131.493 249.293 134.073 252.901 136.937 255.379L136.937 290.185C136.791 290.142 136.646 290.103 136.502 290.068L102.518 202.213C102.62 202.158 102.721 202.101 102.82 202.039ZM86.9662 193.242L52.9829 241.855C52.8359 241.721 52.6882 241.59 52.5397 241.461L52.5397 206.652C55.4033 207.48 57.9835 206.853 59.5674 204.573C61.1493 202.296 61.4425 198.826 60.6322 195.079L86.6448 192.686C86.7498 192.873 86.8569 193.058 86.9662 193.242ZM97.8819 202.636L131.858 290.469C131.097 290.871 130.427 291.463 129.877 292.255C129.33 293.041 128.938 293.972 128.691 295.008L60.7863 255.803C60.5398 254.483 60.1468 253.099 59.5996 251.68C59.0475 250.259 58.3787 248.899 57.6222 247.625L91.6042 199.014C92.5988 199.921 93.6503 200.707 94.7383 201.335C95.8298 201.965 96.8846 202.395 97.8819 202.636ZM103.059 304.571L128.91 302.193C128.832 301.866 128.763 301.541 128.702 301.218L60.7719 261.999C60.7359 262.147 60.6969 262.293 60.6552 262.436L86.633 294.822C88.6784 293.542 91.5519 293.672 94.7383 295.511C98.038 297.416 101.002 300.767 103.059 304.571Z" fill="#FB1FFF"/>
<defs>
<clipPath id="clip0_59_218">
<rect width="314.834" height="296.036" fill="white" transform="translate(365.273 258.895)"/>
</clipPath>
<clipPath id="clip1_59_218">
<rect width="260.709" height="232.881" fill="white" transform="translate(365.273 258.895)"/>
</clipPath>
</defs>
</svg>
